HIERARCHY
ROOT root
{
	OFFSET	0	13.1	24.9
	CHANNELS 6  Xposition Yposition Zposition Xrotation Yrotation Zrotation
	JOINT spine_1
	{
		OFFSET	0	9.99999	0
		CHANNELS 3  Xrotation Yrotation Zrotation
		JOINT spine_2
		{
			OFFSET	0	112	-10
			CHANNELS 3  Xrotation Yrotation Zrotation
			JOINT spine_3
			{
				OFFSET	0	206.5	19.3
				CHANNELS 3  Xrotation Yrotation Zrotation
				JOINT spine_4
				{
					OFFSET	0	110.4	14.6
					CHANNELS 3  Xrotation Yrotation Zrotation
					JOINT neck_1
					{
						OFFSET	0	71.8	-50.3
						CHANNELS 3  Xrotation Yrotation Zrotation
						JOINT neck_2
						{
							OFFSET	0	86.2	-25.8
							CHANNELS 3  Xrotation Yrotation Zrotation
							JOINT head_ee
							{
								OFFSET	0	179.8	-8.7
								CHANNELS 3  Xrotation Yrotation Zrotation
								End Site
								{
									OFFSET	1	0	0
								}
							}
						}
					}
					JOINT left_clavicle
					{
						OFFSET	-43.2	22.4	-70.8
						CHANNELS 3  Xrotation Yrotation Zrotation
						JOINT left_shoulder
						{
							OFFSET	-93.9	-5.79999	48.7
							CHANNELS 3  Xrotation Yrotation Zrotation
							JOINT left_elbow
							{
								OFFSET	-291.4	-30.8	15.2
								CHANNELS 3  Xrotation Yrotation Zrotation
								JOINT left_lowarm_twist
								{
									OFFSET	-110.7	-3.89999	13.6
									CHANNELS 3  Xrotation Yrotation Zrotation
									JOINT left_hand
									{
										OFFSET	-110.7	-3.89999	13.6
										CHANNELS 3  Xrotation Yrotation Zrotation
										JOINT left_ee
										{
											OFFSET	-80.8	-5.10001	12.1
											CHANNELS 3  Xrotation Yrotation Zrotation
											End Site
											{
												OFFSET	1	0	0
											}
										}
									}
								}
							}
						}
					}
					JOINT right_clavicle
					{
						OFFSET	43.2	22.4	-70.8
						CHANNELS 3  Xrotation Yrotation Zrotation
						JOINT right_shoulder
						{
							OFFSET	93.9	-5.79999	48.7
							CHANNELS 3  Xrotation Yrotation Zrotation
							JOINT right_elbow
							{
								OFFSET	291.4	-30.8	15.2
								CHANNELS 3  Xrotation Yrotation Zrotation
								JOINT right_lowarm_twist
								{
									OFFSET	110.7	-3.89999	13.6
									CHANNELS 3  Xrotation Yrotation Zrotation
									JOINT right_hand
									{
										OFFSET	110.7	-3.89999	13.6
										CHANNELS 3  Xrotation Yrotation Zrotation
										JOINT right_ee
										{
											OFFSET	80.8	-5.10001	12.1
											CHANNELS 3  Xrotation Yrotation Zrotation
											End Site
											{
												OFFSET	1	0	0
											}
										}
									}
								}
							}
						}
					}
				}
			}
		}
	}
	JOINT left_hip
	{
		OFFSET	-82.8	-127.5	0.300001
		CHANNELS 3  Xrotation Yrotation Zrotation
		JOINT left_knee
		{
			OFFSET	-28.2	-396.7	2.2
			CHANNELS 3  Xrotation Yrotation Zrotation
			JOINT left_ankle
			{
				OFFSET	-11.7	-411.3	35.4
				CHANNELS 3  Xrotation Yrotation Zrotation
				JOINT left_toes
				{
					OFFSET	0	-60	-88.6
					CHANNELS 3  Xrotation Yrotation Zrotation
					JOINT left_foot_ee
					{
						OFFSET	-22.5	-16.5	-42.2
						CHANNELS 3  Xrotation Yrotation Zrotation
						End Site
						{
							OFFSET	1	0	0
						}
					}
				}
			}
		}
	}
	JOINT right_hip
	{
		OFFSET	82.8	-127.5	0.300001
		CHANNELS 3  Xrotation Yrotation Zrotation
		JOINT right_knee
		{
			OFFSET	28.2	-396.7	2.2
			CHANNELS 3  Xrotation Yrotation Zrotation
			JOINT right_ankle
			{
				OFFSET	11.7	-411.3	35.4
				CHANNELS 3  Xrotation Yrotation Zrotation
				JOINT right_toes
				{
					OFFSET	0	-60	-88.6
					CHANNELS 3  Xrotation Yrotation Zrotation
					JOINT right_foot_ee
					{
						OFFSET	22.5	-16.5	-42.2
						CHANNELS 3  Xrotation Yrotation Zrotation
						End Site
						{
							OFFSET	1	0	0
						}
					}
				}
			}
		}
	}
}
MOTION
Frames: 7
Frame Time: 0.02
1372.05 701.618 -1475.22 -8.46245241574 50.778022593 12.6613341887 0.75739 -0.322369 -1.24679 0.758222 -0.242386 -1.26477 0.763913 0.011667 -1.28773 0.76165 -0.191836 -1.27342 -10.1957 20.8257 2.64239 -10.7755 37.5818 8.18233 -0.0 0.0 -0.0 0.373164 8.97017 1.71523 7.98788 -9.42732 55.9436 4.0993 -63.7634 2.55044 -85.3103 -8.4907 5.17685 -6.45308 17.9026 -34.1061 -0.0 0.0 -0.0 4.29225 22.2037 -6.7022 -27.3527 26.0867 -64.4039 0.30428 8.57193 -0.0228041 29.5162 -0.0810562 3.72819 1.43663 -29.5312 -19.5522 0.0 0.0 0.0 -19.1678 33.1817 9.0764 2.99928 -0.13508 -0.440337 33.2021 -5.29232 -4.3001 -4.12283 0.0 0.0 -0.0 0.0 -0.0 43.9575 21.8733 -25.3624 0.438483 0.018304 0.0647986 -9.47049 -27.931 -1.49448 7.09302 -0.0 -0.0 0.0 0.0 0.0 
1273.89433914 703.194 -1489.08242194 -7.8791653816 56.0197501423 11.6580451798 0.00367797 -0.363085 -1.34763 0.00464585 -0.276604 -1.368 0.0118787 0.0167813 -1.39558 0.00921862 -0.203813 -1.38072 -6.32588 19.994 1.53861 -6.23808 36.0244 5.47295 -0.0 0.0 -0.0 0.774266 9.54642 2.47316 3.17283 -8.80332 60.5596 3.70781 -61.4181 2.20283 -85.3482 -8.49543 5.17589 -5.51642 7.23742 -35.1886 -0.0 0.0 -0.0 5.27945 21.4484 -8.91166 -25.7196 27.5744 -63.2331 0.183502 5.19413 -0.00832333 30.1965 -0.0602408 3.8126 2.19957 -29.9389 -24.105 0.0 0.0 0.0 -23.9599 35.0243 11.5596 1.08786 -0.0463229 -0.160506 32.196 -2.66677 -4.16435 -8.01711 0.0 0.0 -0.0 0.0 -0.0 43.2084 22.4404 -24.9441 -15.1759 -0.321896 -2.29988 -10.7088 -23.4466 -1.65245 9.5501 -0.0 -0.0 0.0 0.0 0.0 
1245.91983348 704.072 -1495.89184545 -6.81732194112 57.1637371601 10.5597309982 -0.267605 -0.308975 -1.20529 -0.266826 -0.231659 -1.22251 -0.261325 0.0361169 -1.24373 -0.263448 -0.160746 -1.23383 -5.70259 19.9261 0.841377 -5.51239 36.2754 4.54523 -0.0 0.0 -0.0 0.687526 9.47574 2.31565 1.52716 -8.54786 61.0422 3.34314 -58.8614 1.88649 -85.3869 -8.50025 5.17491 -5.35009 4.46756 -35.7498 -0.0 0.0 -0.0 5.40677 20.2712 -9.29247 -25.2285 29.0829 -63.129 0.198939 5.62839 -0.00977919 30.6184 -0.046827 3.86483 2.4304 -29.8339 -25.4711 0.0 0.0 0.0 -24.5691 34.5031 11.0875 -0.366498 0.0149177 0.0542645 32.0109 -2.16512 -4.14004 -9.17144 0.0 0.0 -0.0 0.0 -0.0 43.0469 22.6641 -25.2971 -20.0655 -0.294855 -3.04938 -11.9871 -20.5875 -1.83069 10.2608 -0.0 -0.0 0.0 0.0 0.0 
1218.49655393 705.643 -1503.09461931 -5.47480945273 58.4390635269 8.83586993572 -0.36547 -0.235051 -1.13288 -0.364771 -0.162492 -1.14553 -0.361039 0.0891733 -1.15356 -0.362884 -0.0941165 -1.15317 -5.30803 19.8998 0.606523 -5.05251 36.3192 4.16621 -0.0 0.0 -0.0 0.495127 10.3318 2.07246 -0.940352 -8.14201 62.4971 3.14524 -57.2943 1.7185 -85.2022 -8.47719 5.17957 -5.21264 3.55923 -35.2271 -0.0 0.0 -0.0 5.8054 19.2408 -10.2432 -24.4144 30.2605 -62.8601 0.216716 6.12765 -0.0115997 30.1437 -0.0618908 3.80606 2.38378 -30.0653 -25.2328 0.0 0.0 0.0 -23.9227 36.5584 10.0618 -3.55232 0.129874 0.529614 32.4483 -1.1689 -4.17532 -9.90741 0.0 0.0 -0.0 0.0 -0.0 40.6428 23.5921 -24.4851 -22.7563 -0.252728 -3.46008 -9.00255 -17.4653 -1.35621 12.2091 -0.0 -0.0 0.0 0.0 0.0 
1199.01235953 707.888 -1504.53966886 -4.88707226431 58.0122136267 8.15862022948 -0.444692 -0.172276 -1.05563 -0.444078 -0.104758 -1.06445 -0.441724 0.129501 -1.06172 -0.443295 -0.0397933 -1.06885 -4.46453 19.6592 0.97105 -4.0988 35.4307 4.21403 -0.0 0.0 -0.0 0.266399 9.69168 1.60912 -2.89196 -7.73916 63.6358 2.92719 -55.3976 1.53698 -85.1719 -8.4734 5.18033 -5.14047 1.4155 -36.0161 -0.0 0.0 -0.0 6.30836 19.2136 -11.3359 -23.2259 31.211 -61.8715 0.198375 5.61251 -0.00972386 30.3673 -0.0548556 3.83376 2.5524 -30.0573 -26.2523 0.0 0.0 0.0 -23.5441 36.8256 9.99079 -4.05948 0.145725 0.605833 34.1961 -1.09402 -4.34974 -10.5175 0.0 0.0 -0.0 0.0 -0.0 38.9125 24.2362 -24.3745 -23.7901 -0.231422 -3.61729 -6.67133 -15.9249 -0.997681 11.4306 -0.0 -0.0 0.0 0.0 0.0 
1165.86895243 712.524 -1504.75121775 -2.91620689217 58.2002724591 6.19016057818 -0.743964 -0.0933849 -0.882058 -0.743532 -0.0370702 -0.886212 -0.742664 0.161348 -0.87219 -0.743726 0.0215827 -0.886724 -4.0725 20.097 -1.01598 -3.55384 37.6414 2.09308 -0.0 0.0 -0.0 0.0630478 9.58609 1.24508 -6.53948 -5.97794 66.2886 2.75483 -53.7569 1.3965 -85.0838 -8.4624 5.18252 -5.21372 1.12905 -36.8097 -0.0 0.0 -0.0 6.38829 18.6198 -11.5563 -23.1124 32.3937 -61.5835 0.191905 5.43058 -0.00910126 30.2221 -0.0594379 3.81577 2.56066 -28.5479 -26.027 0.0 0.0 0.0 -21.0641 37.4414 8.42372 -5.47459 0.186377 0.819198 36.0983 -1.44365 -4.53631 -10.4958 0.0 0.0 -0.0 0.0 -0.0 33.6249 25.874 -22.7958 -22.2085 -0.262868 -3.37664 -1.39329 -14.428 -0.205663 9.58347 -0.0 -0.0 0.0 0.0 0.0 
1145.29654315 715.736 -1503.88551253 -1.2169753814 57.9643149617 4.45017105191 -0.894282 -0.0837229 -0.776998 -0.893946 -0.0341124 -0.780751 -0.89324 0.142748 -0.768349 -0.894063 0.0196139 -0.781249 -3.8342 20.6848 -1.50769 -3.21213 39.0471 1.57386 -0.0 0.0 -0.0 0.212569 9.8721 1.53627 -9.57547 -5.10667 67.356 2.55925 -51.7257 1.24081 -85.0284 -8.45548 5.18388 -5.09489 0.612384 -36.1427 -0.0 0.0 -0.0 6.14325 18.2834 -11.0515 -21.6485 34.0839 -61.6916 0.229321 6.48111 -0.0129839 30.207 -0.0599117 3.8139 2.84194 -28.457 -27.7697 0.0 0.0 0.0 -19.7902 38.2931 7.56422 -8.83588 0.261716 1.32944 37.32 -0.775447 -4.64399 -10.1587 0.0 0.0 -0.0 0.0 -0.0 29.956 27.098 -21.4261 -20.9086 -0.283732 -3.17827 1.79178 -13.5212 0.262125 8.9577 -0.0 -0.0 0.0 0.0 0.0 
